<svg width="34" height="34" viewBox="0 0 34 34" fill="none" xmlns="http://www.w3.org/2000/svg">
<path d="M5.0617 0.185612C4.82811 0.257553 4.49295 0.422001 4.29998 0.535053C3.78201 0.863945 2.27889 2.48783 1.8117 3.22783C0.318732 5.58144 -0.0164239 8.71617 0.877326 11.7789C1.55779 14.0914 2.39061 15.8592 3.91405 18.2437C5.84373 21.2448 7.09295 22.8687 9.09373 24.9551C12.1 28.0898 14.6289 29.8473 18.5086 31.4814C21.3726 32.6942 23.4851 33.3828 24.6734 33.5062C25.4961 33.5884 27.2937 33.3006 28.35 32.9101C29.8125 32.3756 31.4883 31.1834 32.1383 30.2173C32.7883 29.2306 33.4586 27.0003 33.5398 25.5203L33.6008 24.5439L33.2859 24.1739C33.0625 23.9273 32.1484 23.3723 30.3 22.3651C25.9125 19.9806 25.3539 19.7545 24.6633 20.1245C24.4906 20.2067 23.8406 20.8748 23.2312 21.5942C21.4234 23.7217 21.0476 24.0917 20.743 24.0917C20.357 24.0917 17.8281 22.7864 16.65 21.9848C15.2789 21.0392 14.3851 20.2787 13.2578 19.0967C11.9172 17.6887 10.4648 15.6742 9.65233 14.1017L9.46951 13.7317L10.2008 12.9198C11.1656 11.8817 11.5617 11.2548 11.9476 10.1653C12.3437 9.05533 12.3234 8.71617 11.7445 7.18478C11.2265 5.81783 10.8101 4.68728 10.089 2.72422C9.49998 1.11061 9.06326 0.452831 8.45389 0.257553C7.87498 0.0828323 5.53905 0.0314445 5.0617 0.185612Z" fill="white"/>
</svg>
