<svg width="39" height="26" viewBox="0 0 39 26" fill="none" xmlns="http://www.w3.org/2000/svg">
<path d="M1.29993 0.634956C1.14493 0.694956 1.04993 0.819956 1.04993 0.974956C1.04993 1.12496 1.11493 1.18996 1.96493 1.85996C2.46493 2.25496 3.81993 3.32996 4.97493 4.24996C6.12993 5.16996 7.87493 6.54996 8.84993 7.32496C9.82493 8.09996 11.2799 9.24996 12.0749 9.87996C20.2199 16.34 19.5249 15.8 19.6749 15.8C19.7449 15.8 19.9799 15.655 20.2599 15.435C20.7399 15.06 23.1099 13.18 27.1499 9.97496C28.4299 8.95996 30.1499 7.59996 30.9749 6.94496C36.1149 2.87496 38.1749 1.23496 38.2399 1.15996C38.3349 1.03996 38.3099 0.824956 38.1949 0.719956C38.0899 0.624956 37.7099 0.624956 19.7299 0.614956C9.63493 0.609956 1.33993 0.619956 1.29993 0.634956Z" fill="white"/>
<path d="M1.09498 3.99493L0.974976 4.08993V12.9649C0.974976 21.6199 0.974976 21.8399 1.06998 21.9449C1.25498 22.1499 1.39498 22.0899 2.18498 21.4649C2.96998 20.8449 9.08498 15.9849 11.285 14.2349C12.005 13.6649 12.61 13.1499 12.625 13.0949C12.68 12.9249 12.615 12.7749 12.415 12.6199C12.03 12.3099 6.97998 8.29493 5.72498 7.29993C5.00998 6.73493 3.75498 5.73493 2.93498 5.08493C1.94498 4.29993 1.40498 3.89993 1.32998 3.89993C1.26498 3.89993 1.15998 3.94493 1.09498 3.99493Z" fill="white"/>
<path d="M37.5199 4.16493C37.1949 4.41493 36.6949 4.80993 34.0999 6.87493C33.5099 7.34493 32.2499 8.34493 31.2999 9.09993C26.2849 13.0849 26.6499 12.7799 26.6499 12.9699C26.6499 13.1649 26.3399 12.9099 31.8999 17.3299C33.1799 18.3449 35.0299 19.8199 36.0149 20.5999C37.9299 22.1249 38.0199 22.1799 38.2299 21.9449C38.3249 21.8399 38.3249 21.6949 38.3199 12.9699C38.3199 4.42993 38.3149 4.09993 38.2249 3.99993C38.0749 3.83493 37.8949 3.87493 37.5199 4.16493Z" fill="white"/>
<path d="M13.57 14.785C13.16 15.105 11.71 16.25 10.35 17.325C8.99004 18.4 6.92004 20.035 5.75004 20.955C2.18004 23.77 1.12504 24.61 1.09004 24.67C1.00504 24.79 1.05004 24.995 1.18004 25.095L1.31504 25.2L19.725 25.19C37.755 25.175 38.14 25.175 38.245 25.08C38.395 24.945 38.38 24.72 38.215 24.575C38.135 24.51 35.385 22.335 32.1 19.74C28.815 17.145 25.89 14.84 25.605 14.61C25.245 14.325 25.045 14.2 24.95 14.2C24.855 14.2 24.605 14.365 24.07 14.79C23.66 15.115 22.51 16.025 21.51 16.815L19.695 18.25L17.235 16.31C14.455 14.12 14.565 14.2 14.425 14.2C14.365 14.2 13.985 14.46 13.57 14.785Z" fill="white"/>
</svg>
