<svg width="44" height="29" viewBox="0 0 44 29" fill="none" xmlns="http://www.w3.org/2000/svg">
<path d="M42.7 0.775034C42.52 0.815035 41.915 0.935036 41.35 1.04503C38.615 1.58003 35.965 2.09504 33.9 2.50003C32.65 2.74504 27.585 3.73503 22.65 4.70004C17.715 5.66504 12.645 6.65504 11.39 6.90003C8.48498 7.47004 4.98498 8.15504 2.92498 8.56003C1.38498 8.86003 1.31998 8.87503 1.14998 9.03004C0.989976 9.18003 0.974976 9.21503 0.974976 9.47503C0.974976 9.75003 0.984976 9.77003 1.20498 9.97003C1.32998 10.08 3.22498 11.625 5.41498 13.39L9.39998 16.61V21.245V25.885L9.51498 26.055C9.64998 26.255 9.95498 26.385 10.18 26.33C10.28 26.305 11.045 25.575 12.8 23.825L15.275 21.35L19.7 24.93C22.135 26.9 24.18 28.53 24.25 28.56C24.42 28.625 24.735 28.58 24.86 28.465C24.915 28.415 29.18 22.35 34.335 14.985C40.81 5.74003 43.715 1.55004 43.73 1.43504C43.76 1.24504 43.63 0.975035 43.45 0.840034C43.27 0.710035 43.07 0.695034 42.7 0.775034ZM42.74 1.56503C42.69 1.60003 36 5.50003 27.865 10.24L13.075 18.855L11.575 21.8C10.41 24.08 10.07 24.71 10.06 24.595C10.045 24.475 10.145 22.7 10.425 17.905C10.465 17.235 10.505 16.68 10.51 16.675C10.52 16.67 13.64 15.205 17.45 13.415C29.665 7.67003 40.44 2.60503 41.625 2.04503C42.26 1.74504 42.785 1.50003 42.8 1.50003C42.815 1.50504 42.785 1.53004 42.74 1.56503Z" fill="white"/>
</svg>
