<svg width="80" height="80" viewBox="0 0 80 80" fill="none" xmlns="http://www.w3.org/2000/svg">
<g clip-path="url(#clip0_52_36)">
<path d="M1.64149 0.0562515C1.04537 0.1875 0.518375 0.512497 0.20736 0.9375C0.0518522 1.15 0.0432129 2.2375 0.0432129 40C0.0432129 77.7625 0.0518522 78.85 0.20736 79.0625C0.431982 79.3687 0.846669 79.675 1.25272 79.8312L1.59829 79.9688H40C77.2873 79.9688 78.4104 79.9625 78.7041 79.85C79.1274 79.6875 79.5508 79.3875 79.7668 79.0938L79.9568 78.8438V40V1.15625L79.7668 0.90625C79.5508 0.612495 79.1274 0.3125 78.7041 0.150002C78.4104 0.0374985 77.2786 0.03125 40.1296 0.0187454C19.0843 0.0124969 1.76244 0.03125 1.64149 0.0562515ZM75.5076 40V76.75H40H4.49246V40V3.25H40H75.5076V40Z" fill="#5531A3"/>
<path d="M72.1296 9.16875L71.1965 9.83125L70.7732 9.54375C70.5399 9.3875 70.1339 9.18125 69.8834 9.0875C69.4514 8.925 69.3391 8.90625 68.4665 8.90625C67.5853 8.90625 67.473 8.91875 66.9978 9.0875C64.4751 9.9875 64.4838 12.5812 67.0151 13.4813C67.473 13.6375 67.6026 13.6562 68.4233 13.6562C69.2786 13.6562 69.365 13.6437 69.9093 13.45C71.2916 12.9625 72.0605 11.8062 71.7063 10.75L71.5939 10.425L72.6047 9.69375C73.27 9.2125 73.6069 8.91875 73.6069 8.83125C73.6069 8.70625 73.3218 8.5 73.1404 8.5C73.0972 8.5 72.6393 8.8 72.1296 9.16875ZM69.1231 9.5625C69.5119 9.64375 70.0821 9.9125 70.3326 10.1437L70.5227 10.325L69.6242 10.975L68.7257 11.625L67.9913 11.0938C67.4557 10.7062 67.1965 10.5625 67.0324 10.5625C66.7559 10.5625 66.6091 10.6688 66.6091 10.8687C66.6091 11.1 68.3715 12.375 68.6825 12.375C68.8466 12.375 69.1404 12.2 69.8402 11.6938C70.3672 11.3125 70.825 11.025 70.8682 11.0438C70.9892 11.1 70.8596 11.7437 70.6609 12.0375C70.2289 12.6875 69.2527 13.1 68.2937 13.0437C66.1685 12.925 65.2268 11.1125 66.73 10.0312C67.378 9.56875 68.2764 9.39375 69.1231 9.5625Z" fill="#5531A3"/>
<path d="M9.0713 10.325C7.90499 10.7563 7.97411 11.95 9.18361 12.2813C9.51191 12.3688 11.8618 12.375 34.7732 12.3625L60 12.3438L60.3024 12.2063C60.7776 11.9938 61.0195 11.6313 60.9763 11.1938C60.9331 10.7563 60.6998 10.5 60.1901 10.3188L59.8186 10.1875H34.635H9.45143L9.0713 10.325Z" fill="#5531A3"/>
<path d="M72.0778 17.3875L71.1966 18.025L70.8251 17.775C70.0303 17.2438 69.2182 17.0313 68.216 17.075C67.3521 17.1188 66.6609 17.35 66.0476 17.8188C65.5033 18.2313 65.2873 18.5438 65.1491 19.0938C64.8899 20.125 65.6933 21.2313 66.9979 21.6625C68.3715 22.1188 69.8316 21.925 70.8683 21.15C71.6113 20.6 71.9568 19.6875 71.7063 18.9375L71.594 18.6125L72.6048 17.8813C73.5897 17.1625 73.7365 16.9938 73.5033 16.825C73.2441 16.6375 72.9676 16.7438 72.0778 17.3875ZM69.4428 17.875C69.6761 17.95 70.0216 18.1188 70.2031 18.2563L70.5314 18.5L69.607 19.175L68.6825 19.8438L67.905 19.2813C67.1793 18.7563 67.1188 18.7313 66.8942 18.7875C66.7128 18.8313 66.6437 18.8938 66.6264 19.0313C66.6005 19.2 66.7214 19.3 67.5854 19.925C68.1296 20.3063 68.6393 20.625 68.7257 20.625C68.8121 20.625 69.3132 20.3125 69.8489 19.9375C70.3759 19.5563 70.8424 19.25 70.8769 19.25C71.0152 19.25 70.8337 19.9688 70.6178 20.2938C70.3672 20.675 70.0303 20.9 69.3823 21.1125C68.9936 21.2438 68.8294 21.2625 68.3024 21.2375C67.9223 21.2188 67.5594 21.1563 67.3435 21.075C66.9288 20.925 66.4277 20.5563 66.2203 20.25C66.0216 19.975 65.9525 19.275 66.0821 18.9875C66.5659 17.9313 68.0519 17.4438 69.4428 17.875Z" fill="#5531A3"/>
<path d="M9.38227 18.4437C8.29372 18.6312 7.85311 19.575 8.57881 20.1687C9.09717 20.5937 7.2138 20.5625 31.5594 20.5625H53.7106L54.0821 20.4187C55.1101 20.025 55.0929 18.925 54.0561 18.5125C53.797 18.4125 52.5443 18.4062 31.7494 18.3937C18.4449 18.3937 9.58097 18.4125 9.38227 18.4437Z" fill="#5531A3"/>
<path d="M72.0605 25.5875L71.1707 26.2313L70.7819 25.9563C69.8316 25.2688 68.216 25.075 66.9979 25.5C65.6933 25.9563 64.8899 27.0813 65.1491 28.1C65.3478 28.8938 66.2031 29.6625 67.1966 29.9438C67.5681 30.05 67.8705 30.0875 68.4666 30.0875C69.1663 30.0938 69.3046 30.075 69.8229 29.8938C70.9374 29.5125 71.689 28.7375 71.7754 27.8688C71.7927 27.6375 71.7668 27.3125 71.7149 27.15L71.6113 26.8563L72.6048 26.125C73.6242 25.3813 73.7452 25.2313 73.4687 25.0375C73.1923 24.8375 72.9763 24.9188 72.0605 25.5875ZM69.5292 26.1C69.7711 26.1875 70.0908 26.3563 70.2463 26.4813L70.5141 26.7063L69.5983 27.3688L68.6912 28.025L67.9223 27.4813C67.499 27.1813 67.1016 26.9375 67.0411 26.9375C66.8597 26.9375 66.6091 27.1313 66.6091 27.275C66.6091 27.475 68.4061 28.8125 68.6739 28.8125C68.8208 28.8125 69.1577 28.6125 69.8489 28.125C70.3759 27.7438 70.8424 27.4375 70.8769 27.4375C70.9979 27.4375 70.8683 28.0938 70.6869 28.3875C70.2808 29.0563 69.4514 29.45 68.4493 29.45C67.499 29.4438 66.7473 29.1313 66.3067 28.5563C66.0735 28.2563 66.0476 28.1625 66.0476 27.6875C66.0476 27.0938 66.2031 26.8063 66.7128 26.4375C67.4126 25.925 68.6393 25.7813 69.5292 26.1Z" fill="#5531A3"/>
<path d="M9.02805 26.75C8.00861 27.1187 7.94814 28.175 8.93302 28.5937L9.30451 28.75H32.2332H55.162L55.4989 28.6062C55.8963 28.4437 56.2419 28.025 56.2419 27.7C56.2419 27.35 55.9309 26.9562 55.5162 26.7812L55.1447 26.625H32.2592C9.57233 26.625 9.37362 26.625 9.02805 26.75Z" fill="#5531A3"/>
<path d="M67.9395 33.5C66.0734 33.6937 64.7948 35.0312 65.1836 36.3812C65.4946 37.475 66.7041 38.2375 68.2505 38.3C69.0799 38.3312 69.6846 38.2125 70.324 37.8937C72.0086 37.0437 72.2851 35.35 70.9114 34.275C70.1253 33.6562 69.0713 33.3812 67.9395 33.5ZM69.6242 34.3437C70.4449 34.6687 70.8682 35.2 70.8769 35.9062C70.8769 36.45 70.6091 36.8625 70.0129 37.2437C69.2527 37.7312 68.2592 37.8062 67.3002 37.4562C65.771 36.8875 65.5464 35.3625 66.8769 34.5375C67.3866 34.225 67.8272 34.125 68.5615 34.15C69.0281 34.1625 69.27 34.2062 69.6242 34.3437Z" fill="#5531A3"/>
<path d="M9.02807 34.9563C8.63066 35.1188 8.31965 35.425 8.2419 35.7313C8.11231 36.225 8.62203 36.8 9.30453 36.9313C9.55507 36.9813 16.5616 36.9938 34.1339 36.9875L58.6177 36.9688L58.9287 36.825C59.9568 36.3688 59.879 35.2875 58.7991 34.9313C58.4536 34.8188 57.6069 34.8125 33.9093 34.8125H9.37365L9.02807 34.9563Z" fill="#5531A3"/>
<path d="M67.5162 41.7687C65.8488 42.1687 64.8726 43.275 65.1404 44.4562C65.581 46.45 68.9762 47.2187 70.8683 45.7562C72.4406 44.5375 71.905 42.5812 69.8143 41.8875C69.2354 41.6937 68.0864 41.6375 67.5162 41.7687ZM69.175 42.4062C69.7279 42.525 70.4104 42.9562 70.6782 43.3562C70.9201 43.7312 70.946 44.4062 70.73 44.7687C70.2117 45.6375 68.8726 46.075 67.6372 45.7812C67.0324 45.6312 66.3499 45.15 66.1512 44.725C65.4773 43.3 67.2052 41.9812 69.175 42.4062Z" fill="#5531A3"/>
<path d="M9.20091 43.0938C8.77758 43.2 8.42337 43.475 8.28514 43.8062C8.09508 44.275 8.39745 44.7875 9.02812 45.0438L9.37369 45.1875H34.4277C58.6782 45.1875 59.4903 45.1812 59.8359 45.0688C61.0713 44.6625 60.8813 43.3062 59.5594 43.0687C59.3003 43.0187 51.8705 43 34.3672 43C13.2009 43.0062 9.49464 43.0187 9.20091 43.0938Z" fill="#5531A3"/>
<path d="M72.0604 50.2125L71.1706 50.8563L70.7818 50.5813C70.5745 50.425 70.1425 50.2125 69.8229 50.1063C69.3045 49.925 69.1663 49.9063 68.4665 49.9125C67.4557 49.9188 66.8769 50.075 66.1944 50.5313C64.4579 51.6938 64.8466 53.7 66.9633 54.4625C68.6652 55.0813 70.6522 54.575 71.473 53.325C71.7754 52.8563 71.8704 52.2313 71.7149 51.775L71.6112 51.4813L72.6047 50.75C73.1576 50.35 73.6069 49.9688 73.6069 49.9125C73.6069 49.7063 73.4341 49.5625 73.1922 49.5625C73.0108 49.5625 72.7602 49.7063 72.0604 50.2125ZM69.4687 50.7C69.6846 50.7688 70.0216 50.9313 70.203 51.0688L70.5313 51.3125L69.6069 51.9875L68.6825 52.6563L67.9222 52.1063C67.5075 51.8063 67.1015 51.5625 67.0237 51.5625C66.825 51.5625 66.609 51.7313 66.609 51.8938C66.609 52.0688 68.4751 53.4375 68.717 53.4375C68.8121 53.4375 69.2959 53.1438 69.8488 52.75C70.3758 52.3688 70.8423 52.0625 70.8769 52.0625C70.9978 52.0625 70.8509 52.7438 70.6782 53.0313C70.2808 53.6813 69.4514 54.0625 68.4492 54.0625C67.7494 54.0625 67.2397 53.9125 66.7559 53.575C66.2635 53.2375 66.0734 52.9188 66.0216 52.3875C65.987 51.975 66.0043 51.9 66.2635 51.525C66.8596 50.6438 68.1728 50.3063 69.4687 50.7Z" fill="#5531A3"/>
<path d="M8.92446 51.4063C8.31971 51.6688 8.05189 52.2375 8.32835 52.7063C8.47522 52.975 9.00221 53.3 9.34779 53.3438C9.50329 53.3625 20.9849 53.3688 34.8683 53.3625L60.1037 53.3438L60.4147 53.1688C60.8381 52.9375 60.9936 52.7 60.9936 52.2938C60.9936 51.9188 60.7949 51.6438 60.3629 51.4125L60.121 51.2813L34.7042 51.2688L9.28731 51.25L8.92446 51.4063Z" fill="#5531A3"/>
<path d="M72.0605 58.4062L71.1448 59.0562L70.7646 58.7812C70.0303 58.2437 68.9504 57.9937 67.9137 58.1249C65.175 58.4687 64.1469 60.8812 66.1512 62.2562C66.7646 62.6749 67.4212 62.8874 68.2247 62.9249C70.4709 63.0312 72.2074 61.5374 71.6977 59.9437L71.6113 59.6624L72.6134 58.9374C73.2441 58.4812 73.607 58.1687 73.607 58.0874C73.607 57.9312 73.3564 57.7499 73.1318 57.7499C73.0454 57.7499 72.5616 58.0437 72.0605 58.4062ZM69.4947 58.9062C69.6847 58.9687 69.9871 59.1312 70.1858 59.2624L70.5314 59.5062L69.607 60.1749L68.6826 60.8437L67.9655 60.3249C67.4471 59.9562 67.1966 59.8124 67.0324 59.8124C66.756 59.8124 66.6091 59.9187 66.6091 60.1187C66.6091 60.3374 68.3802 61.6249 68.6912 61.6249C68.8467 61.6249 69.1577 61.4437 69.8489 60.9374C70.3672 60.5562 70.8337 60.2499 70.8769 60.2499C71.0065 60.2499 70.8683 60.9062 70.6696 61.2312C70.1167 62.1437 68.6048 62.5437 67.3607 62.0999C66.7992 61.9062 66.4968 61.6687 66.1944 61.1937C66.013 60.9124 65.9871 60.7937 66.0216 60.4124C66.0476 60.1687 66.134 59.8687 66.2117 59.7499C66.5141 59.3249 67.1188 58.9499 67.7322 58.8062C68.1037 58.7187 69.1318 58.7749 69.4947 58.9062Z" fill="#5531A3"/>
<path d="M9.11449 59.525C8.00001 59.875 7.93954 61.0937 9.01945 61.4625C9.28727 61.5562 11.3953 61.5625 33.9525 61.5625C54.9892 61.5625 58.6177 61.55 58.8164 61.475C59.9309 61.0562 59.9223 59.925 58.7992 59.5375C58.5313 59.4437 56.4061 59.4375 33.9352 59.4375C13.8315 59.4437 9.33047 59.4562 9.11449 59.525Z" fill="#5531A3"/>
<path d="M67.3434 66.4251C65.2009 66.9751 64.4233 68.8563 65.7884 70.2001C66.1426 70.5501 66.7214 70.8438 67.3694 71.0126C67.7581 71.1126 68.0173 71.1313 68.6048 71.1126C69.5724 71.0813 70.2808 70.8438 70.9201 70.3438C71.5249 69.8626 71.7408 69.4313 71.7408 68.7188C71.7408 68.2813 71.6976 68.0751 71.5421 67.8001C71.2743 67.3001 70.6264 66.8063 69.9093 66.5501C69.4082 66.3688 69.2354 66.3438 68.5529 66.3251C67.9827 66.3126 67.6631 66.3376 67.3434 66.4251ZM69.3218 67.0626C70.2722 67.3251 70.8769 67.9688 70.8769 68.7188C70.8769 69.4251 70.3413 70.0376 69.4601 70.3376C68.864 70.5376 67.9136 70.5188 67.3348 70.3001C66.5054 69.9876 66.0043 69.3938 66.0043 68.7188C66.0043 67.4626 67.689 66.6251 69.3218 67.0626Z" fill="#5531A3"/>
<path d="M9.10582 67.7437C7.95679 68.1187 7.93087 69.2562 9.07126 69.6688L9.45139 69.8125H31.7926C53.3218 69.8125 54.1339 69.8062 54.4708 69.6938C55.6976 69.2875 55.6976 68.15 54.4708 67.7437C54.1339 67.6312 53.3218 67.625 31.7926 67.625C10.2376 67.625 9.45139 67.6312 9.10582 67.7437Z" fill="#5531A3"/>
</g>
<defs>
<clipPath id="clip0_52_36">
<rect width="80" height="80" fill="white"/>
</clipPath>
</defs>
</svg>
